HIERARCHY
ROOT Storm:Solving:Root
{
	OFFSET 0.000000 0.000000 0.000000
	CHANNELS 6 Xposition Yposition Zposition Xrotation Yrotation Zrotation
	JOINT Storm:Solving:L_Clav
	{
		OFFSET 0.000000 0.000000 0.000000
		CHANNELS 6 Xposition Yposition Zposition Xrotation Yrotation Zrotation
		JOINT Storm:Solving:L_Scapula_Joint
		{
			OFFSET 4.000000 0.000000 0.000000
			CHANNELS 6 Xposition Yposition Zposition Xrotation Yrotation Zrotation
			JOINT Storm:Solving:L_Shoulder_Joint
			{
				OFFSET 4.002680 -10.770058 -11.084216
				CHANNELS 6 Xposition Yposition Zposition Xrotation Yrotation Zrotation
				JOINT Storm:Solving:L_Elbow_Joint
				{
					OFFSET 2.147804 8.035205 -15.161017
					CHANNELS 6 Xposition Yposition Zposition Xrotation Yrotation Zrotation
					JOINT Storm:Solving:L_Wrist_Joint
					{
						OFFSET -2.240269 9.040073 -20.029085
						CHANNELS 6 Xposition Yposition Zposition Xrotation Yrotation Zrotation
						JOINT Storm:Solving:L_Paw_Joint
						{
							OFFSET 0.706234 -1.834930 -5.721245
							CHANNELS 6 Xposition Yposition Zposition Xrotation Yrotation Zrotation
							End Site
							{
								OFFSET 1.343818 -4.244948 -3.510090
							}
						}
					}
				}
			}
		}
	}
	JOINT Storm:Solving:R_Clav
	{
		OFFSET 0.000000 0.000000 0.000000
		CHANNELS 6 Xposition Yposition Zposition Xrotation Yrotation Zrotation
		JOINT Storm:Solving:R_Scapula_Joint
		{
			OFFSET -4.000000 -0.000001 0.000000
			CHANNELS 6 Xposition Yposition Zposition Xrotation Yrotation Zrotation
			JOINT Storm:Solving:NewBone_3
			{
				OFFSET -4.614829 -9.889530 -11.686038
				CHANNELS 6 Xposition Yposition Zposition Xrotation Yrotation Zrotation
				JOINT Storm:Solving:R_Elbow_Joint
				{
					OFFSET -0.160743 5.491839 -16.404385
					CHANNELS 6 Xposition Yposition Zposition Xrotation Yrotation Zrotation
					JOINT Storm:Solving:R_Wrist_Joint
					{
						OFFSET 2.412016 -1.190895 -21.935680
						CHANNELS 6 Xposition Yposition Zposition Xrotation Yrotation Zrotation
						JOINT Storm:Solving:R_Paw_Joint
						{
							OFFSET -0.535018 -3.806499 -3.351765
							CHANNELS 6 Xposition Yposition Zposition Xrotation Yrotation Zrotation
							End Site
							{
								OFFSET -0.877549 -5.252174 -2.975662
							}
						}
					}
				}
			}
		}
	}
	JOINT Storm:Solving:Root_To_Spine_Dummy
	{
		OFFSET 0.000000 0.000000 0.000000
		CHANNELS 6 Xposition Yposition Zposition Xrotation Yrotation Zrotation
		JOINT Storm:Solving:Spine1
		{
			OFFSET 0.000000 3.827275 -0.000000
			CHANNELS 6 Xposition Yposition Zposition Xrotation Yrotation Zrotation
			JOINT Storm:Solving:Spine2
			{
				OFFSET 0.000001 16.939260 -0.000001
				CHANNELS 6 Xposition Yposition Zposition Xrotation Yrotation Zrotation
				JOINT Storm:Solving:Spine3
				{
					OFFSET 0.000002 14.393892 -0.000001
					CHANNELS 6 Xposition Yposition Zposition Xrotation Yrotation Zrotation
					JOINT Storm:Solving:Pelvis_Root
					{
						OFFSET 0.000002 14.393890 -0.000001
						CHANNELS 6 Xposition Yposition Zposition Xrotation Yrotation Zrotation
						JOINT Storm:Solving:L_Pelvis
						{
							OFFSET 0.000000 0.000000 0.000000
							CHANNELS 6 Xposition Yposition Zposition Xrotation Yrotation Zrotation
							JOINT Storm:Solving:LFemur_Joint
							{
								OFFSET 8.318080 6.728058 -6.780919
								CHANNELS 6 Xposition Yposition Zposition Xrotation Yrotation Zrotation
								JOINT Storm:Solving:LTibia_Joint
								{
									OFFSET 4.762119 -12.109562 -18.232958
									CHANNELS 6 Xposition Yposition Zposition Xrotation Yrotation Zrotation
									JOINT Storm:Solving:LAnkle_Joint
									{
										OFFSET 1.748854 12.690498 -18.426313
										CHANNELS 6 Xposition Yposition Zposition Xrotation Yrotation Zrotation
										JOINT Storm:Solving:LFoot_Joint
										{
											OFFSET 2.893215 -3.420891 -10.324425
											CHANNELS 6 Xposition Yposition Zposition Xrotation Yrotation Zrotation
											End Site
											{
												OFFSET 3.317142 -6.178677 -1.153622
											}
										}
									}
								}
							}
						}
						JOINT Storm:Solving:R_Pelvis
						{
							OFFSET 0.000000 0.000000 0.000000
							CHANNELS 6 Xposition Yposition Zposition Xrotation Yrotation Zrotation
							JOINT Storm:Solving:RFemur_Joint
							{
								OFFSET -8.082922 6.553699 -7.104603
								CHANNELS 6 Xposition Yposition Zposition Xrotation Yrotation Zrotation
								JOINT Storm:Solving:RTibia_Joint
								{
									OFFSET -3.034004 -11.551189 -18.950596
									CHANNELS 6 Xposition Yposition Zposition Xrotation Yrotation Zrotation
									JOINT Storm:Solving:RAnkle_Joint
									{
										OFFSET 0.163292 10.210636 -19.936810
										CHANNELS 6 Xposition Yposition Zposition Xrotation Yrotation Zrotation
										JOINT Storm:Solving:RFoot_Joint
										{
											OFFSET -0.793680 -0.101715 -9.967937
											CHANNELS 6 Xposition Yposition Zposition Xrotation Yrotation Zrotation
											End Site
											{
												OFFSET -4.434014 -4.525612 -1.490955
											}
										}
									}
								}
							}
						}
					}
				}
			}
		}
	}
	JOINT Storm:Solving:Root_To_Neck
	{
		OFFSET 0.000000 0.000000 0.000000
		CHANNELS 6 Xposition Yposition Zposition Xrotation Yrotation Zrotation
		JOINT Storm:Solving:Neck1
		{
			OFFSET 0.000000 -5.729186 4.185542
			CHANNELS 6 Xposition Yposition Zposition Xrotation Yrotation Zrotation
			JOINT Storm:Solving:Neck2
			{
				OFFSET 2.125778 -7.100437 5.862305
				CHANNELS 6 Xposition Yposition Zposition Xrotation Yrotation Zrotation
				JOINT Storm:Solving:Head
				{
					OFFSET -4.381103 -1.801980 5.689912
					CHANNELS 6 Xposition Yposition Zposition Xrotation Yrotation Zrotation
					JOINT Storm:Solving:Head_End
					{
						OFFSET -9.753127 -15.562062 2.579649
						CHANNELS 6 Xposition Yposition Zposition Xrotation Yrotation Zrotation
						End Site
						{
							OFFSET -4.085258 5.421284 17.259089
						}
					}
				}
			}
		}
	}
	JOINT Storm:Solving:R_Clav_1
	{
		OFFSET 0.000000 0.000000 0.000000
		CHANNELS 6 Xposition Yposition Zposition Xrotation Yrotation Zrotation
		End Site
		{
			OFFSET 0.000000 0.000000 0.010000
		}
	}
}
MOTION
Frames: 4
Frame Time: 0.041667
-4.911768 202.284241 58.245396 -1.198146 1.263698 -14.266679 -0.000002 0.000005 0.000000 2.245696 6.378570 -0.249616 3.999999 -0.000000 -0.000007 1.089884 -3.603495 -1.039638 4.002685 -10.770071 -11.084208 -3.545133 3.705842 -1.718347 2.147801 8.035213 -15.161005 -20.554133 -9.894290 3.384564 -2.240263 9.040094 -20.029076 6.768609 -8.007028 -2.386093 0.706234 -1.834929 -5.721236 4.191130 1.302550 0.156304 -0.000002 0.000005 0.000000 4.959306 -13.667019 1.174550 -3.999995 -0.000018 -0.000003 6.853553 24.206460 -4.247910 -4.614826 -9.889522 -11.686026 3.340093 -5.014444 2.168146 -0.160749 5.491853 -16.404387 -1.075693 -0.052858 -0.115848 2.412037 -1.190927 -21.935692 3.720737 -3.480155 6.574707 -0.535019 -3.806500 -3.351774 -9.552528 2.201998 -0.762611 -0.000002 0.000005 0.000000 0.000000 0.000000 0.000000 -0.000001 3.827305 -0.000001 -4.311162 0.269481 0.064153 -0.000000 16.939268 -0.000000 -7.077850 36.146481 22.924710 0.000006 14.393872 -0.000014 -15.844446 -43.108975 -25.525696 0.000003 14.393914 0.000007 1.171255 17.825629 6.150485 0.000000 -0.000008 -0.000007 0.000004 0.000005 -0.000002 8.318072 6.728045 -6.780932 -8.024878 -6.854722 9.297936 4.762088 -12.109591 -18.232924 1.954508 0.362596 0.424210 1.748852 12.690495 -18.426323 -17.498035 -7.870763 -3.254912 2.893217 -3.420882 -10.324437 17.775257 9.333163 0.496588 0.000008 -0.000027 -0.000001 0.000002 0.000006 0.000008 -8.082895 6.553703 -7.104616 8.411520 3.759424 7.412017 -3.034001 -11.551184 -18.950602 8.260561 -1.431303 -0.541841 0.163295 10.210660 -19.936842 4.465011 -6.049052 0.026358 -0.793682 -0.101670 -9.967964 2.898474 -2.779569 -0.132423 -0.000002 0.000005 0.000000 -0.000000 0.000000 0.000001 -0.000001 -5.729195 4.185581 -7.986258 -1.734257 1.196943 2.125793 -7.100433 5.862327 15.889298 15.297660 11.958717 -4.381099 -1.801969 5.689908 -12.560954 -6.896539 -11.597916 -9.753145 -15.562065 2.579647 0.000003 -0.000003 0.000006 -0.000002 0.000005 0.000000 0.000000 0.000000 0.000000 
-4.922678 202.201981 58.258381 -1.156267 1.221648 -14.360331 -0.000004 0.000023 -0.000003 2.261919 6.495869 -0.256025 3.999999 -0.000058 0.000002 1.122081 -3.736778 -1.059003 4.002670 -10.770032 -11.084210 -3.562250 3.755147 -1.682588 2.147767 8.035198 -15.161016 -20.542344 -9.902323 3.497503 -2.240271 9.040072 -20.029074 6.796854 -8.060661 -2.426919 0.706235 -1.834909 -5.721257 4.073804 1.265942 0.153222 -0.000004 0.000023 -0.000003 4.979928 -13.686777 1.181130 -3.999984 -0.000033 0.000000 6.889325 24.252072 -4.283643 -4.614842 -9.889523 -11.686032 3.297559 -4.985696 2.195677 -0.160752 5.491882 -16.404387 -1.107321 -0.054377 -0.119269 2.412012 -1.190871 -21.935696 3.814011 -3.494668 6.648697 -0.535026 -3.806478 -3.351745 -9.626757 2.219584 -0.767096 -0.000004 0.000023 -0.000003 -0.000000 -0.000000 -0.000000 -0.000004 3.827290 0.000007 -4.359510 0.263214 0.062034 -0.000001 16.939268 0.000007 -7.198108 36.233897 23.023357 0.000002 14.393895 -0.000008 -15.950797 -43.245445 -25.570123 -0.000001 14.393865 0.000006 1.222274 17.922888 6.201030 -0.000001 0.000015 0.000008 -0.000001 0.000001 0.000001 8.318066 6.728085 -6.780899 -7.995500 -6.848771 9.257230 4.762119 -12.109568 -18.232899 2.118493 0.393702 0.459259 1.748854 12.690517 -18.426279 -17.624391 -7.891891 -3.286640 2.893236 -3.420900 -10.324434 17.746510 9.318207 0.498139 0.000001 0.000015 0.000014 0.000008 0.000001 0.000009 -8.082925 6.553687 -7.104606 8.526366 3.767471 7.400638 -3.033997 -11.551175 -18.950602 8.231161 -1.426074 -0.540285 0.163304 10.210601 -19.936840 4.684624 -6.150195 0.022941 -0.793684 -0.101699 -9.967952 2.745021 -2.632243 -0.128929 -0.000004 0.000023 -0.000003 0.000003 0.000001 0.000001 -0.000007 -5.729206 4.185525 -7.954790 -1.752544 1.151880 2.125781 -7.100427 5.862302 16.050282 15.443068 12.029876 -4.381094 -1.802037 5.689900 -12.325126 -6.870892 -11.953583 -9.753133 -15.562068 2.579656 -0.000001 -0.000001 -0.000000 -0.000004 0.000023 -0.000003 -0.000000 -0.000000 -0.000000 
-4.931995 202.118774 58.266335 -1.115026 1.199218 -14.463554 0.000000 0.000031 0.000001 2.298488 6.448488 -0.258279 4.000002 -0.000029 0.000001 1.148190 -3.676036 -1.065800 4.002688 -10.770066 -11.084211 -3.555493 3.774605 -1.733880 2.147826 8.035200 -15.161017 -20.563961 -9.968093 3.673650 -2.240269 9.040047 -20.029110 6.861337 -8.063734 -2.439756 0.706226 -1.834904 -5.721233 3.954468 1.228708 0.150018 0.000000 0.000031 0.000001 4.977581 -13.777516 1.188243 -3.999990 0.000009 -0.000015 6.921773 24.365062 -4.344539 -4.614821 -9.889551 -11.686049 3.294984 -4.974014 2.240521 -0.160736 5.491867 -16.404390 -1.125757 -0.055264 -0.121263 2.412020 -1.190903 -21.935682 3.910761 -3.517078 6.753302 -0.535036 -3.806484 -3.351721 -9.750300 2.248866 -0.774502 0.000000 0.000031 0.000001 -0.000000 0.000000 -0.000000 0.000003 3.827292 -0.000004 -4.389385 0.241334 0.060602 -0.000000 16.939241 0.000010 -7.266480 36.161702 23.050787 0.000001 14.393891 0.000000 -15.954140 -43.314314 -25.480219 -0.000002 14.393922 0.000018 1.189955 18.031498 6.229514 -0.000001 0.000000 0.000010 0.000001 -0.000003 0.000001 8.318105 6.728084 -6.780903 -7.884591 -6.760077 9.225864 4.762112 -12.109580 -18.232929 2.256729 0.419997 0.488739 1.748853 12.690516 -18.426325 -17.775077 -7.989786 -3.323582 2.893238 -3.420879 -10.324450 17.729937 9.309584 0.499029 0.000002 -0.000015 0.000015 0.000001 0.000002 0.000008 -8.082915 6.553684 -7.104600 8.669186 3.839111 7.365673 -3.034016 -11.551230 -18.950579 8.245275 -1.428586 -0.541036 0.163300 10.210598 -19.936808 4.788445 -6.132962 0.014225 -0.793711 -0.101713 -9.967928 2.727550 -2.615459 -0.128507 0.000000 0.000031 0.000001 0.000005 -0.000001 -0.000002 -0.000012 -5.729187 4.185560 -7.932512 -1.775557 1.104596 2.125787 -7.100434 5.862303 16.219508 15.576176 12.103722 -4.381106 -1.801966 5.689907 -12.116629 -6.909763 -12.247251 -9.753120 -15.562095 2.579625 -0.000001 -0.000000 0.000002 0.000000 0.000031 0.000001 -0.000000 0.000000 -0.000000 
-4.935784 202.036194 58.272449 -1.062490 1.173153 -14.576435 -0.000007 0.000016 0.000001 2.330509 6.459187 -0.262311 3.999995 -0.000003 -0.000001 1.179322 -3.687268 -1.077711 4.002684 -10.770053 -11.084218 -3.508084 3.875441 -1.840252 2.147810 8.035217 -15.161019 -20.671921 -10.116799 3.905374 -2.240278 9.040064 -20.029116 6.985814 -8.102655 -2.440855 0.706253 -1.834927 -5.721244 3.779572 1.174152 0.145170 -0.000007 0.000016 0.000001 4.980129 -13.843530 1.194441 -3.999993 -0.000023 0.000006 6.944608 24.468866 -4.339892 -4.614839 -9.889540 -11.686032 3.287971 -4.969246 2.302479 -0.160741 5.491856 -16.404385 -1.165054 -0.057148 -0.125519 2.412015 -1.190898 -21.935698 4.008818 -3.531616 6.773766 -0.535033 -3.806475 -3.351744 -9.878305 2.279212 -0.782114 -0.000007 0.000016 0.000001 0.000000 -0.000000 -0.000001 -0.000009 3.827286 0.000001 -4.414956 0.217608 0.097740 0.000007 16.939262 0.000003 -7.344115 36.152451 23.082833 0.000003 14.393910 0.000003 -15.996127 -43.322131 -25.450490 -0.000000 14.393899 0.000004 1.235986 18.095504 6.241719 -0.000001 -0.000027 -0.000015 -0.000002 -0.000001 -0.000006 8.318089 6.728076 -6.780914 -7.817544 -6.751054 9.188280 4.762110 -12.109550 -18.232937 2.384692 0.444402 0.515978 1.748851 12.690458 -18.426327 -17.902252 -8.022091 -3.355498 2.893225 -3.420926 -10.324436 17.675389 9.281174 0.501946 0.000002 -0.000011 -0.000010 0.000003 0.000004 0.000011 -8.082927 6.553676 -7.104616 8.770433 3.841558 7.446170 -3.034007 -11.551174 -18.950609 8.224554 -1.424898 -0.539930 0.163302 10.210661 -19.936775 4.916724 -6.102943 0.002310 -0.793689 -0.101710 -9.967945 2.746584 -2.633746 -0.128959 -0.000007 0.000016 0.000001 0.000005 0.000001 0.000001 0.000004 -5.729186 4.185572 -7.917864 -1.803322 1.054160 2.125777 -7.100407 5.862327 16.383744 15.706428 12.174554 -4.381112 -1.801993 5.689908 -11.922204 -6.924759 -12.544262 -9.753128 -15.562067 2.579646 0.000000 -0.000002 0.000003 -0.000007 0.000016 0.000001 0.000000 0.000000 0.000000 
